<?xml version="1.0" standalone="no"?>
<!DOCTYPE svg PUBLIC "-//W3C//DTD SVG 20010904//EN"
 "http://www.w3.org/TR/2001/REC-SVG-20010904/DTD/svg10.dtd">
<svg version="1.0" xmlns="http://www.w3.org/2000/svg"
 width="325.000000pt" height="325.000000pt" viewBox="0 0 325.000000 325.000000"
 preserveAspectRatio="xMidYMid meet">
<metadata>
Created by potrace 1.11, written by Peter Selinger 2001-2013
</metadata>
<g transform="translate(0.000000,325.000000) scale(0.100000,-0.100000)"
fill="#000000" stroke="none">
<path d="M0 1625 l0 -1625 1625 0 1625 0 0 1625 0 1625 -1625 0 -1625 0 0
-1625z m2387 723 c-2 -13 -4 -5 -4 17 -1 22 1 32 4 23 2 -10 2 -28 0 -40z
m-2150 -55 c-3 -10 -5 -4 -5 12 0 17 2 24 5 18 2 -7 2 -21 0 -30z m1360 -30
c-3 -10 -5 -2 -5 17 0 19 2 27 5 18 2 -10 2 -26 0 -35z m1590 -5 c-3 -8 -6 -5
-6 6 -1 11 2 17 5 13 3 -3 4 -12 1 -19z m-1590 -85 c-2 -16 -4 -5 -4 22 0 28
2 40 4 28 2 -13 2 -35 0 -50z m-690 -15 c-3 -8 -6 -5 -6 6 -1 11 2 17 5 13 3
-3 4 -12 1 -19z m1610 -65 c-3 -10 -5 -4 -5 12 0 17 2 24 5 18 2 -7 2 -21 0
-30z m-550 -15 c-3 -7 -5 -2 -5 12 0 14 2 19 5 13 2 -7 2 -19 0 -25z m-1146
-61 c-10 -9 -11 -8 -5 6 3 10 9 15 12 12 3 -3 0 -11 -7 -18z m461 -233 c16
-15 18 -15 24 -1 5 14 46 15 90 2 15 -4 -15 -96 -40 -120 -22 -22 -31 -13 -28
28 2 18 -4 41 -12 52 -13 19 -15 19 -33 3 -17 -16 -18 -26 -11 -100 5 -53 13
-88 24 -98 8 -8 14 -10 13 -5 -5 16 11 98 18 92 3 -4 14 -2 24 4 23 12 23 16
-1 -117 -26 -140 -37 -174 -58 -174 -33 0 -39 16 -48 125 l-9 110 -32 -3 c-38
-4 -38 -2 -21 82 10 54 10 59 -10 79 -22 21 -22 21 -37 2 -8 -11 -15 -27 -15
-37 0 -24 -40 -11 -67 21 -31 38 -15 61 40 61 24 0 48 -5 55 -12 8 -8 15 -8
24 -1 12 10 41 18 77 22 8 0 23 -6 33 -15z m556 0 c19 -6 22 -13 22 -55 0 -46
-2 -49 -25 -49 -16 0 -25 6 -25 15 0 9 -12 18 -30 21 -32 7 -57 30 -46 42 7 6
63 29 76 31 3 0 15 -2 28 -5z m-175 -131 c30 -27 36 -38 31 -58 -4 -15 -2 -25
5 -25 15 0 14 -37 -1 -47 -7 -4 -58 -10 -113 -13 -85 -4 -100 -8 -103 -23 -4
-22 59 -87 85 -87 10 0 40 20 67 45 43 39 51 43 70 33 13 -7 16 -13 8 -16 -6
-2 -12 -11 -12 -20 -1 -39 -72 -92 -124 -92 -13 0 -32 7 -40 16 -9 9 -24 13
-35 9 -21 -6 -43 16 -48 48 -2 12 -9 25 -16 29 -8 5 -12 31 -11 76 1 57 6 74
25 97 64 75 149 86 212 28z m-529 -22 c3 -27 3 -57 -1 -66 -5 -15 -3 -17 11
-12 10 4 15 3 11 -3 -4 -6 6 -7 26 -3 l32 6 -7 -64 c-10 -105 -23 -139 -51
-139 -31 0 -38 14 -40 75 -1 27 -5 58 -10 68 -4 9 -4 24 -1 33 4 9 2 22 -3 28
-11 14 -31 108 -25 118 3 4 16 8 28 8 20 0 24 -6 30 -49z m881 19 c15 -15 27
-34 29 -41 1 -8 7 -24 14 -36 27 -48 6 -141 -43 -190 -26 -26 -41 -33 -71 -32
-22 0 -48 4 -59 8 -11 5 -28 4 -39 -2 -15 -7 -22 -5 -32 8 -8 10 -11 22 -8 27
3 5 5 63 5 130 -2 132 5 153 44 138 15 -6 29 -5 39 3 9 7 34 13 56 13 30 1 45
-5 65 -26z m-1189 -518 c7 -10 19 -13 35 -9 25 7 69 -25 69 -49 0 -6 7 -25 15
-40 19 -37 19 -94 -1 -182 -21 -92 -46 -117 -134 -131 -91 -15 -182 -14 -205
3 -18 13 -17 14 8 30 14 10 31 15 37 11 5 -3 21 6 35 21 25 27 34 51 15 39 -6
-4 -10 43 -12 122 l-3 127 -35 11 c-31 9 -35 13 -32 39 3 27 5 28 46 22 23 -4
53 -3 65 2 31 11 83 3 97 -16z m899 -27 c0 -37 -25 -53 -59 -37 -32 14 -33 38
-4 69 19 21 24 22 42 9 13 -8 21 -24 21 -41z m-509 -92 c27 -26 33 -38 28 -58
-4 -15 -2 -25 5 -25 9 0 17 -47 9 -51 -2 -1 -52 -4 -113 -8 -91 -5 -110 -9
-113 -22 -4 -21 65 -89 90 -89 10 0 40 20 66 44 38 35 51 42 65 35 16 -9 16
-12 -3 -49 -24 -47 -54 -69 -105 -77 -30 -5 -41 -2 -51 12 -8 11 -21 16 -33
12 -25 -6 -62 19 -55 37 3 7 -2 20 -10 29 -24 24 -21 131 4 173 31 49 76 74
133 72 40 -1 54 -7 83 -35z m238 7 c6 -6 14 -6 20 -1 6 5 20 11 31 13 17 3 19
-2 17 -32 -4 -44 -21 -80 -39 -80 -7 0 -13 5 -13 10 0 22 -41 50 -74 50 -70 0
-72 -57 -2 -73 20 -5 36 -13 36 -18 0 -13 58 -11 62 3 6 16 48 -55 48 -80 0
-12 -5 -32 -11 -45 -11 -24 -49 -54 -49 -38 0 6 5 13 10 16 6 3 10 14 10 23 0
13 -2 13 -15 -3 -52 -69 -51 -68 -79 -61 -16 4 -26 10 -22 13 3 3 1 12 -6 20
-9 11 -16 9 -40 -14 -38 -37 -52 -21 -49 54 1 40 7 62 19 71 15 11 15 14 -1
41 -28 48 -22 85 21 121 32 27 42 30 77 25 22 -3 44 -10 49 -15z m532 5 c25
-13 31 -13 51 0 33 22 59 18 83 -12 29 -37 23 -67 -15 -71 -35 -4 -45 -16 -45
-56 0 -20 -11 -39 -36 -63 -20 -19 -35 -35 -33 -36 2 -1 14 -8 26 -14 13 -7
36 -13 52 -13 19 0 34 -8 45 -25 23 -35 20 -48 -15 -74 -18 -14 -28 -28 -25
-37 8 -21 -33 -34 -103 -34 -39 0 -63 5 -71 14 -6 8 -18 12 -25 10 -8 -3 -26
6 -41 21 -22 22 -25 32 -19 58 4 18 6 52 6 76 -1 24 5 54 14 67 9 14 15 46 15
79 0 56 22 95 54 95 7 0 19 7 26 15 15 19 21 19 56 0z m267 6 c4 -1 12 -13 18
-28 l10 -26 28 27 c39 37 88 44 124 16 26 -21 27 -24 27 -121 0 -77 -3 -99
-12 -94 -7 4 2 -5 20 -20 34 -28 42 -59 16 -69 -24 -9 -112 -7 -118 3 -8 12
31 44 43 36 16 -9 26 24 12 38 -6 6 -11 44 -11 87 0 107 -29 129 -87 68 -43
-46 -53 -70 -53 -123 0 -39 3 -47 25 -55 30 -11 32 -31 5 -48 -22 -13 -138
-13 -146 0 -3 5 9 22 26 40 30 29 32 36 34 110 1 67 -2 82 -18 96 -15 13 -18
14 -12 2 4 -8 -2 -5 -13 8 -18 21 -19 25 -4 41 10 12 26 17 47 15 17 -1 34 -3
39 -3z m-589 -13 c-5 -8 2 -9 24 -5 l32 7 0 -88 c0 -55 -4 -92 -12 -100 -9 -9
-9 -12 -1 -12 7 0 13 -10 15 -22 2 -18 11 -24 38 -28 42 -6 54 -40 13 -40 -13
0 -32 -4 -42 -9 -28 -16 -174 -16 -179 -1 -3 7 0 10 7 6 7 -5 9 -1 5 9 -11 27
13 43 56 38 33 -5 40 -3 40 11 0 9 6 16 13 16 8 0 14 7 14 15 0 8 -4 12 -9 9
-8 -5 -10 7 -12 91 -1 62 -17 82 -52 66 -39 -17 -61 8 -32 37 16 16 92 16 82
0z"/>
<path d="M1512 1614 c-12 -8 -22 -24 -22 -35 0 -17 7 -19 69 -19 84 0 106 17
65 49 -32 25 -81 27 -112 5z"/>
<path d="M1892 1587 c-17 -18 -22 -35 -22 -78 1 -62 14 -84 60 -100 29 -10 34
-9 56 13 33 33 39 135 10 167 -26 29 -76 28 -104 -2z"/>
<path d="M790 1092 c-14 -2 -29 -7 -33 -12 -5 -4 -9 -51 -8 -105 0 -59 -4
-104 -12 -116 -8 -13 -9 -22 -2 -27 6 -4 10 -16 9 -27 -1 -44 40 -57 99 -32
39 16 57 71 57 174 0 87 1 84 -75 141 -5 4 -21 6 -35 4z"/>
<path d="M1060 968 c-11 -12 -19 -27 -17 -33 5 -14 137 -19 150 -6 8 8 3 19
-13 36 -31 33 -90 35 -120 3z"/>
<path d="M1376 861 c-49 -7 -54 -20 -21 -59 33 -40 90 -51 118 -24 24 25 16
54 -21 73 -35 17 -31 17 -76 10z"/>
<path d="M1906 948 c-22 -32 -20 -61 7 -86 42 -39 90 -23 100 34 11 61 -73
101 -107 52z"/>
<path d="M1881 801 c-7 -5 -10 -14 -7 -20 10 -16 41 -14 56 4 8 9 8 15 2 15
-6 0 -16 2 -24 5 -7 3 -19 1 -27 -4z"/>
<path d="M1888 719 c-26 -14 -22 -31 12 -64 21 -20 30 -24 30 -14 0 13 10 15
54 11 90 -7 130 35 61 64 -39 16 -132 18 -157 3z"/>
</g>
</svg>
