<?xml version="1.0" standalone="no"?>
<!DOCTYPE svg PUBLIC "-//W3C//DTD SVG 20010904//EN"
 "http://www.w3.org/TR/2001/REC-SVG-20010904/DTD/svg10.dtd">
<svg version="1.0" xmlns="http://www.w3.org/2000/svg"
 width="261.000000pt" height="261.000000pt" viewBox="0 0 261.000000 261.000000"
 preserveAspectRatio="xMidYMid meet">
<metadata>
Created by potrace 1.11, written by Peter Selinger 2001-2013
</metadata>
<g transform="translate(0.000000,261.000000) scale(0.100000,-0.100000)"
fill="#000000" stroke="none">
<path d="M0 1305 l0 -1305 1305 0 1305 0 0 1305 0 1305 -1305 0 -1305 0 0
-1305z m1740 434 c0 -171 -2 -190 -16 -187 -11 2 -22 22 -31 57 -22 87 -62
152 -116 188 -70 47 -115 56 -272 57 l-140 1 -3 -259 -2 -259 56 7 c120 14
177 79 206 232 9 51 15 64 30 64 17 0 18 -17 18 -335 0 -322 -1 -335 -19 -335
-15 0 -20 10 -25 53 -8 60 -46 150 -79 185 -32 35 -68 51 -132 58 l-57 7 4
-239 c3 -131 8 -247 12 -256 14 -32 69 -48 163 -48 241 1 386 98 452 303 14
42 41 51 41 13 0 -13 -11 -101 -25 -196 -14 -95 -25 -176 -25 -181 0 -5 -228
-9 -550 -9 -528 0 -550 1 -550 18 0 16 9 19 52 21 56 2 90 18 110 53 10 18 13
139 13 550 l0 526 -24 26 c-25 27 -76 46 -123 46 -18 0 -28 5 -28 15 0 13 66
15 530 15 l530 0 0 -191z"/>
</g>
</svg>
